<?xml version="1.0" standalone="no"?>
<!DOCTYPE svg PUBLIC "-//W3C//DTD SVG 20010904//EN"
 "http://www.w3.org/TR/2001/REC-SVG-20010904/DTD/svg10.dtd">
<svg version="1.0" xmlns="http://www.w3.org/2000/svg"
 width="512.000000pt" height="512.000000pt" viewBox="0 0 512.000000 512.000000"
 preserveAspectRatio="xMidYMid meet">
<metadata>
Created by potrace 1.14, written by Peter Selinger 2001-2017
</metadata>
<g transform="translate(0.000000,512.000000) scale(0.100000,-0.100000)"
fill="#000000" stroke="none">
<path d="M2468 5105 c-2 -1 -48 -5 -103 -9 -100 -7 -110 -8 -195 -21 -188 -28
-396 -86 -580 -162 -99 -40 -283 -133 -335 -169 -20 -13 -38 -24 -40 -24 -11
0 -177 -119 -255 -183 -147 -120 -315 -291 -418 -427 -23 -30 -46 -59 -50 -65
-47 -63 -157 -245 -207 -344 -209 -416 -298 -873 -261 -1346 34 -423 170 -824
403 -1182 37 -56 151 -213 163 -223 3 -3 16 -18 29 -35 12 -16 53 -61 90 -100
496 -518 1148 -799 1851 -798 187 0 279 9 505 48 66 12 228 57 321 89 396 137
722 347 1024 661 305 316 546 770 634 1195 30 145 41 218 52 350 12 145 6 445
-11 532 -3 13 -7 37 -9 53 -2 17 -7 41 -10 55 -3 14 -8 42 -11 62 -7 54 -52
219 -87 323 -175 515 -531 978 -988 1286 -122 82 -147 96 -315 178 -228 112
-479 191 -715 227 -25 3 -52 8 -60 9 -51 9 -414 26 -422 20z"/>
</g>
</svg>
